<?xml version="1.0" encoding="utf-8"?>
<!-- Generator: Adobe Illustrator 19.2.1, SVG Export Plug-In . SVG Version: 6.00 Build 0)  -->
<svg version="1.1" id="Capa_1" xmlns="http://www.w3.org/2000/svg" xmlns:xlink="http://www.w3.org/1999/xlink" x="0px" y="0px"
	 viewBox="0 0 512 512" style="enable-background:new 0 0 512 512;" xml:space="preserve">
<style type="text/css">
	.st0{fill:#099D8D;}
</style>
<path class="st0" d="M230.9,253.4c13.4,8.9,36.8,8.9,50.2,0c0,0,0,0,0,0L509,101.5c-7.5-21.6-28-37.2-52.1-37.2H55.2
	C31,64.3,10.5,79.8,3,101.5L230.9,253.4C230.9,253.4,230.9,253.4,230.9,253.4L230.9,253.4z"/>
<path class="st0" d="M297.7,278.3C297.7,278.3,297.7,278.3,297.7,278.3C286,286.1,271,290,256,290c-15,0-30-3.9-41.7-11.7
	c0,0,0,0,0,0L0,135.5v257.1c0,30.4,24.7,55.2,55.2,55.2h401.7c30.4,0,55.2-24.7,55.2-55.2V135.5L297.7,278.3z"/>
</svg>
