<?xml version="1.0" encoding="utf-8"?>
<!-- Generator: Adobe Illustrator 19.2.1, SVG Export Plug-In . SVG Version: 6.00 Build 0)  -->
<svg version="1.1" id="Capa_1" xmlns="http://www.w3.org/2000/svg" xmlns:xlink="http://www.w3.org/1999/xlink" x="0px" y="0px"
	 viewBox="0 0 682 682" style="enable-background:new 0 0 682 682;" xml:space="preserve">
<style type="text/css">
	.st0{fill:#099D8D;}
</style>
<path class="st0" d="M77.5-0.4C30.6-0.4,0,30.4,0,70.9c0,39.6,29.7,71.2,75.7,71.2h0.9c47.8,0,77.5-31.7,77.5-71.2
	C153.3,30.4,124.4-0.4,77.5-0.4z"/>
<path class="st0" d="M8.1,198.4h137.1v412.4H8.1V198.4z"/>
<path class="st0" d="M481.6,188.7c-73.9,0-123.5,69.5-123.5,69.5v-59.8H221v412.4H358V380.5c0-12.3,0.9-24.6,4.5-33.5
	c9.9-24.6,32.5-50.1,70.3-50.1c49.6,0,69.4,37.8,69.4,93.2v220.6h137V374.3C639.4,247.7,571.7,188.7,481.6,188.7z"/>
</svg>
